<?xml version="1.0" standalone="no"?>
<!DOCTYPE svg PUBLIC "-//W3C//DTD SVG 20010904//EN"
 "http://www.w3.org/TR/2001/REC-SVG-20010904/DTD/svg10.dtd">
<svg version="1.0" xmlns="http://www.w3.org/2000/svg"
 width="260.000000pt" height="260.000000pt" viewBox="0 0 260.000000 260.000000"
 preserveAspectRatio="xMidYMid meet">
<metadata>
Created by potrace 1.11, written by Peter Selinger 2001-2013
</metadata>
<g transform="translate(0.000000,260.000000) scale(0.100000,-0.100000)"
fill="#000000" stroke="none">
<path d="M0 1300 l0 -1300 1300 0 1300 0 0 1300 0 1300 -1300 0 -1300 0 0
-1300z m723 418 c3 -569 4 -596 25 -675 48 -183 142 -311 275 -376 101 -49
164 -62 297 -60 93 1 130 6 192 26 188 60 303 191 360 410 21 79 22 106 25
675 l4 592 265 0 264 0 0 -79 0 -80 -57 -16 c-32 -9 -71 -29 -87 -43 -56 -52
-56 -56 -56 -499 0 -539 -13 -641 -110 -838 -115 -235 -305 -374 -595 -437
-88 -19 -352 -17 -445 4 -359 79 -579 303 -663 673 -18 81 -20 138 -26 560 -4
329 -9 476 -18 490 -23 41 -70 74 -125 90 l-58 16 0 80 0 79 264 0 265 0 4
-592z"/>
</g>
</svg>
