<svg id="Layer_1" data-name="Layer 1" xmlns="http://www.w3.org/2000/svg" viewBox="0 0 340.16 305.5"><defs><style>.cls-1{fill:#fcf2e7;}</style></defs><title>marque</title><path class="cls-1" d="M169.68,304.5C82.53,304.5,30.5,249.65,30.5,157.77V51.47A25.22,25.22,0,0,0,11.2,27L0,24.25V0H80.76V154.4c0,67.24,31.58,104.27,88.92,104.27,57.77,0,89.59-36.93,89.59-104V30.06h.07V.3L340,0V24.25L328.84,27a25.22,25.22,0,0,0-19.31,24.52v106.6c0,47.88-13.35,85.1-39.69,110.63-24.16,23.42-58.79,35.8-100.16,35.8"/></svg>