<?xml version="1.0" encoding="UTF-8"?>
<svg width="650px" height="117px" viewBox="0 0 650 117" version="1.1" xmlns="http://www.w3.org/2000/svg" xmlns:xlink="http://www.w3.org/1999/xlink">
    <!-- Generator: Sketch 57.1 (83088) - https://sketch.com -->
    <title>Group</title>
    <desc>Created with Sketch.</desc>
    <defs>
        <polygon id="path-1" points="0 0.16575 62.4538845 0.16575 62.4538845 76.5 0 76.5"></polygon>
        <polygon id="path-3" points="0 76.5 650 76.5 650 0 0 0"></polygon>
    </defs>
    <g id="Symbols" stroke="none" stroke-width="1" fill="none" fill-rule="evenodd">
        <g id="LOGOTYPE---LIGHT_2" transform="translate(0.000000, -1.000000)">
            <g id="Group" transform="translate(0.000000, 1.000000)">
                <g id="Group-3">
                    <mask id="mask-2" fill="white">
                        <use xlink:href="#path-1"></use>
                    </mask>
                    <g id="Clip-2"></g>
                    <path d="M62.4538845,0.16575 L62.4538845,46.0735962 C62.4538845,66.0714808 49.7893229,76.5009808 31.9309679,76.5009808 C11.7976128,76.5009808 0,65.31825 0,46.1795192 L0,0.16575 L14.070638,0.16575 L14.070638,45.0006346 C14.070638,59.5140577 21.1069444,67.79175 33.8781467,67.79175 C46.7599392,67.79175 53.3617839,60.4830577 53.3617839,45.0006346 L53.3617839,0.16575 L62.4538845,0.16575 Z" id="Fill-1" fill="#FCF2E7" mask="url(#mask-2)"></path>
                </g>
                <polygon id="Fill-4" fill="#FCF2E7" points="133.957744 0 142.939815 0 142.939815 75 137.488923 75 88.7254898 15.7067859 88.7254898 74.7875354 79.7453704 74.7875354 79.7453704 0 93.1111749 0 133.957744 50.0012995"></polygon>
                <path d="M173.664247,40.1780129 L173.664247,67.6071205 L187.402105,67.6071205 C198.414671,67.6071205 205.2836,63.9634591 205.2836,54.0020329 C205.2836,44.142254 198.305262,40.1780129 186.530808,40.1780129 L173.664247,40.1780129 Z M173.664247,32.7870882 L185.657521,32.7870882 C195.47056,32.7870882 202.12266,29.5715179 202.12266,19.9306714 C202.12266,10.9290294 196.125028,7.28732277 185.76693,7.28732277 L173.664247,7.28732277 L173.664247,32.7870882 Z M159.490741,75 L159.490741,0 L188.711041,0 C203.974664,0 216.512996,5.25242389 216.512996,18.6424885 C216.512996,29.2509383 207.463834,35.4651011 196.888906,36.2157266 L196.888906,36.4287948 C208.55395,36.8588407 219.675926,42.1073551 219.675926,54.7507037 C219.675926,69.1064168 207.026196,75 190.781865,75 L159.490741,75 Z" id="Fill-6" fill="#FCF2E7"></path>
                <path d="M251.564782,35.1445215 L265.186457,35.1445215 C275.507555,35.1445215 282.638743,31.2858372 282.638743,20.8943651 C282.638743,11.5721435 276.039531,7.28732277 265.186457,7.28732277 L251.564782,7.28732277 L251.564782,35.1445215 Z M251.564782,75 L237.731481,75 L237.731481,0 L269.335476,0 C284.659861,0 297.429211,5.46549208 297.429211,20.251251 C297.429211,33.320736 286.149004,38.6806714 275.082363,38.8937396 L275.082363,39.2143192 C284.448236,40.0724562 289.234072,44.2497654 292.109457,52.6082934 L295.938127,63.2147884 C297.535994,67.6071205 299.238704,70.9282475 302.430556,75 L286.894546,75 C284.659861,71.5713616 283.063935,67.499609 281.999984,64.5010165 L277.637398,52.5007819 C275.082363,45.1079024 272.102137,42.4279347 263.483748,42.4279347 L251.564782,42.4279347 L251.564782,75 Z" id="Fill-8" fill="#FCF2E7"></path>
                <mask id="mask-4" fill="white">
                    <use xlink:href="#path-3"></use>
                </mask>
                <g id="Clip-11"></g>
                <polygon id="Fill-10" fill="#FCF2E7" mask="url(#mask-4)" points="320.486111 75 334.027778 75 334.027778 0 320.486111 0"></polygon>
                <path d="M378.919647,7.1798113 L369.107928,7.1798113 L369.107928,67.8221435 L379.781221,67.8221435 C397.246789,67.8221435 407.705672,58.0718307 407.705672,37.1794204 C407.705672,18.2163522 397.246789,7.1798113 378.919647,7.1798113 L378.919647,7.1798113 Z M355.092593,75 L355.092593,0 L379.997598,0 C405.872367,0 422.800926,13.6070423 422.800926,37.1794204 C422.800926,61.9285603 405.225203,75 381.400116,75 L355.092593,75 Z" id="Fill-12" fill="#FCF2E7" mask="url(#mask-4)"></path>
                <polygon id="Fill-13" fill="#FCF2E7" mask="url(#mask-4)" points="439.351852 0 453.900708 0 453.900708 67.2845861 493.518519 67.2845861 493.518519 75 439.351852 75"></polygon>
                <polygon id="Fill-14" fill="#FCF2E7" mask="url(#mask-4)" points="508.564815 0 562.506429 0 562.506429 7.60790242 522.617246 7.60790242 522.617246 32.462599 551.913361 32.462599 551.913361 40.0705015 522.617246 40.0705015 522.617246 67.2845861 564.236111 67.2845861 564.236111 75 508.564815 75"></polygon>
                <path d="M606.118721,7.1798113 L596.307003,7.1798113 L596.307003,67.8221435 L606.980295,67.8221435 C624.445863,67.8221435 634.904746,58.0718307 634.904746,37.1794204 C634.904746,18.2163522 624.445863,7.1798113 606.118721,7.1798113 L606.118721,7.1798113 Z M582.291667,75 L582.291667,0 L607.196673,0 C633.071441,0 650,13.6070423 650,37.1794204 C650,61.9285603 632.424277,75 608.59919,75 L582.291667,75 Z" id="Fill-15" fill="#FCF2E7" mask="url(#mask-4)"></path>
                <path d="M173.032407,116.683794 L173.032407,116.43083 C174.522752,115.608696 175.030103,115.229249 175.030103,113.142292 L175.030103,98.0909091 C175.030103,96.0039526 174.522752,95.6245059 173.032407,94.8023715 L173.032407,94.5494071 L181.68909,94.5494071 C189.394489,94.5494071 194.05578,98.8181818 194.05578,105.58498 C194.05578,112.478261 189.33107,116.683794 181.847638,116.683794 L173.032407,116.683794 Z M190.853125,105.58498 C190.853125,99.6403162 187.58705,95.8142292 181.467124,95.8142292 L177.915664,95.8142292 L177.915664,115.418972 L181.562252,115.418972 C187.58705,115.418972 190.853125,111.719368 190.853125,105.58498 Z M197.987753,95.9407115 C197.987753,94.8339921 198.843909,93.9486166 199.985449,93.9486166 C201.095281,93.9486166 201.983145,94.8339921 201.983145,95.9407115 C201.983145,97.0158103 201.095281,97.9011858 199.985449,97.9011858 C198.843909,97.9011858 197.987753,97.0158103 197.987753,95.9407115 Z M201.539213,101.316206 L201.539213,113.237154 C201.539213,115.324111 201.983145,115.608696 203.346652,116.462451 L203.346652,116.683794 L196.973051,116.683794 L196.973051,116.462451 C198.336557,115.608696 198.78049,115.324111 198.78049,113.237154 L198.78049,104.573123 C198.78049,102.865613 197.860915,102.264822 196.655956,101.505929 L196.655956,101.316206 L201.539213,101.316206 Z M211.781369,102.296443 C209.910511,102.296443 208.832389,103.245059 208.832389,104.636364 C208.832389,106.15415 209.910511,106.881423 212.637524,107.418972 C216.759754,108.209486 218.313518,109.56917 218.313518,112.162055 C218.313518,115.102767 215.808471,117 212.447268,117 C210.449572,117 208.832389,116.272727 207.785977,115.640316 L206.676146,117 L206.42247,117 L206.073666,111.150198 L206.517598,111.150198 C208.134781,114.12253 210.037349,115.671937 212.447268,115.671937 C214.381545,115.671937 215.871889,114.786561 215.871889,112.920949 C215.871889,111.150198 214.444964,110.581028 211.781369,110.075099 C207.849396,109.284585 206.485889,107.956522 206.485889,105.458498 C206.485889,102.833992 208.737261,101 211.749659,101 C213.620518,101 214.952315,101.600791 216.030437,102.264822 L217.235396,101 L217.457362,101 L217.457362,106.217391 L217.108558,106.217391 C215.713342,104.003953 214.06445,102.296443 211.781369,102.296443 Z M229.094735,102.264822 C226.050626,102.264822 224.274897,105.173913 224.274897,108.778656 C224.274897,112.826087 226.272593,115.26087 229.411829,115.26087 C231.631492,115.26087 233.438931,114.12253 234.358505,111.687747 L234.960985,111.940711 C234.263377,115.102767 232.043715,117 228.587383,117 C224.496863,117 221.262498,114.185771 221.262498,109.221344 C221.262498,104.225296 224.718829,101 229.063025,101 C232.265681,101 234.64389,102.612648 234.64389,104.857708 C234.64389,106.343874 233.534059,106.818182 232.582775,106.818182 C232.29739,106.818182 231.916877,106.754941 231.758329,106.596838 C231.916877,106.185771 232.075424,105.932806 232.075424,105.237154 C232.075424,103.592885 231.15585,102.264822 229.094735,102.264822 Z M252.876831,109 C252.876831,113.679842 249.579047,117 245.139722,117 C240.700398,117 237.402614,113.679842 237.402614,109 C237.402614,104.320158 240.700398,101 245.139722,101 C249.579047,101 252.876831,104.320158 252.876831,109 Z M249.801013,109 C249.801013,104.857708 248.21554,102.296443 245.139722,102.296443 C242.063904,102.296443 240.478431,104.857708 240.478431,109 C240.478431,113.142292 242.063904,115.703557 245.139722,115.703557 C248.21554,115.703557 249.801013,113.142292 249.801013,109 Z M263.182405,112.731225 L266.797284,104.794466 C267.241217,103.87747 267.304635,103.529644 267.304635,103.118577 C267.304635,102.486166 266.543608,102.043478 265.655743,101.505929 L265.655743,101.316206 L270.792676,101.316206 L270.792676,101.505929 C269.777973,102.328063 269.112075,103.150198 268.1925,105.047431 L262.516507,117 L262.357959,117 L256.681966,105.047431 C255.762392,103.150198 255.096493,102.328063 254.08179,101.505929 L254.08179,101.316206 L259.94804,101.316206 L259.94804,101.505929 C259.155304,102.043478 258.8065,102.264822 258.8065,102.802372 C258.8065,103.245059 259.028466,103.814229 259.440689,104.731225 L263.182405,112.731225 Z M279.38594,101 C283.730136,101 286.235184,103.84585 286.235184,108.715415 L274.978325,108.715415 C274.978325,112.794466 276.976021,115.29249 280.337224,115.29249 C282.747143,115.29249 284.491163,114.15415 285.410738,111.687747 L286.076636,111.909091 C285.347319,115.134387 283.064238,117 279.512778,117 C275.358839,117 271.997636,114.185771 271.997636,109.189723 C271.997636,104.193676 275.29542,101 279.38594,101 Z M275.041744,107.513834 L283.254494,107.513834 C283.191075,104.826087 282.366629,102.264822 279.354231,102.264822 C276.849183,102.264822 275.327129,104.383399 275.041744,107.513834 Z M293.49665,109.505929 L293.49665,113.458498 C293.49665,115.29249 294.225968,115.671937 296.572468,116.399209 L296.572468,116.683794 L288.930488,116.683794 L288.930488,116.462451 C290.293995,115.608696 290.737927,115.324111 290.737927,113.237154 L290.737927,104.573123 C290.737927,102.865613 289.818353,102.264822 288.613393,101.505929 L288.613393,101.316206 L293.369812,101.316206 L293.49665,105.711462 C294.321096,103.245059 295.84315,101 298.538455,101 C300.187347,101 301.13863,101.916996 301.13863,103.27668 C301.13863,104.573123 300.155637,105.332016 299.140934,105.332016 C299.204353,104.098814 298.665293,103.3083 297.396914,103.3083 C295.240671,103.3083 293.49665,106.12253 293.49665,109.505929 Z M319.213023,107.418972 L314.488314,107.418972 L314.488314,113.142292 C314.488314,115.197628 315.344469,115.608696 317.278746,116.43083 L317.278746,116.683794 L309.605057,116.683794 L309.605057,116.43083 C311.095401,115.608696 311.602753,115.229249 311.602753,113.142292 L311.602753,98.0909091 C311.602753,96.0039526 311.095401,95.6245059 309.605057,94.8023715 L309.605057,94.5494071 L319.213023,94.5494071 C324.381666,94.5494071 327.616031,96.6363636 327.616031,101 C327.616031,105.332016 324.286537,107.418972 319.213023,107.418972 Z M314.488314,106.185771 L318.673962,106.185771 C322.574226,106.185771 324.571922,104.573123 324.571922,101 C324.571922,97.3952569 322.574226,95.7826087 318.673962,95.7826087 L314.488314,95.7826087 L314.488314,106.185771 Z M345.30991,109 C345.30991,113.679842 342.012126,117 337.572801,117 C333.133477,117 329.835693,113.679842 329.835693,109 C329.835693,104.320158 333.133477,101 337.572801,101 C342.012126,101 345.30991,104.320158 345.30991,109 Z M342.234092,109 C342.234092,104.857708 340.648619,102.296443 337.572801,102.296443 C334.496984,102.296443 332.911511,104.857708 332.911511,109 C332.911511,113.142292 334.496984,115.703557 337.572801,115.703557 C340.648619,115.703557 342.234092,113.142292 342.234092,109 Z M352.444539,93 L352.444539,113.237154 C352.444539,115.324111 352.888471,115.608696 354.251978,116.462451 L354.251978,116.683794 L347.878376,116.683794 L347.878376,116.462451 C349.241883,115.608696 349.685816,115.324111 349.685816,113.237154 L349.685816,96.2885375 C349.685816,94.5494071 348.734532,93.9802372 347.529572,93.2213439 L347.529572,93 L352.444539,93 Z M372.199533,109 C372.199533,113.679842 368.901749,117 364.462424,117 C360.0231,117 356.725316,113.679842 356.725316,109 C356.725316,104.320158 360.0231,101 364.462424,101 C368.901749,101 372.199533,104.320158 372.199533,109 Z M369.123715,109 C369.123715,104.857708 367.538242,102.296443 364.462424,102.296443 C361.386607,102.296443 359.801134,104.857708 359.801134,109 C359.801134,113.142292 361.386607,115.703557 364.462424,115.703557 C367.538242,115.703557 369.123715,113.142292 369.123715,109 Z M381.331858,105.616601 C381.331858,98.9762846 385.993149,94.2332016 392.335041,94.2332016 C398.676933,94.2332016 403.338224,98.9762846 403.338224,105.616601 C403.338224,112.256917 398.676933,117 392.335041,117 C385.993149,117 381.331858,112.256917 381.331858,105.616601 Z M400.072149,105.616601 C400.072149,99.6403162 397.154879,95.6561265 392.335041,95.6561265 C387.515203,95.6561265 384.597932,99.6403162 384.597932,105.616601 C384.597932,111.592885 387.515203,115.577075 392.335041,115.577075 C397.154879,115.577075 400.072149,111.592885 400.072149,105.616601 Z M421.349198,106.501976 L421.349198,113.237154 C421.349198,115.324111 421.79313,115.608696 423.156637,116.462451 L423.156637,116.683794 L416.783035,116.683794 L416.783035,116.462451 C418.146542,115.608696 418.590475,115.324111 418.590475,113.237154 L418.590475,106.976285 C418.590475,104.889328 417.766029,102.960474 415.260981,102.960474 C412.882772,102.960474 410.821657,104.952569 410.821657,108.588933 L410.821657,113.237154 C410.821657,115.324111 411.265589,115.608696 412.629096,116.462451 L412.629096,116.683794 L406.255494,116.683794 L406.255494,116.462451 C407.619001,115.608696 408.062933,115.324111 408.062933,113.237154 L408.062933,104.573123 C408.062933,102.865613 407.143359,102.264822 405.9384,101.505929 L405.9384,101.316206 L410.694819,101.316206 L410.821657,105.142292 C411.741231,102.486166 413.738927,101 416.402522,101 C419.636887,101 421.349198,103.118577 421.349198,106.501976 Z M430.101009,93 L430.101009,113.237154 C430.101009,115.324111 430.544941,115.608696 431.908448,116.462451 L431.908448,116.683794 L425.534847,116.683794 L425.534847,116.462451 C426.898353,115.608696 427.342286,115.324111 427.342286,113.237154 L427.342286,96.2885375 C427.342286,94.5494071 426.391002,93.9802372 425.186043,93.2213439 L425.186043,93 L430.101009,93 Z M435.523327,95.9407115 C435.523327,94.8339921 436.379482,93.9486166 437.521023,93.9486166 C438.630854,93.9486166 439.518719,94.8339921 439.518719,95.9407115 C439.518719,97.0158103 438.630854,97.9011858 437.521023,97.9011858 C436.379482,97.9011858 435.523327,97.0158103 435.523327,95.9407115 Z M439.074787,101.316206 L439.074787,113.237154 C439.074787,115.324111 439.518719,115.608696 440.882226,116.462451 L440.882226,116.683794 L434.508624,116.683794 L434.508624,116.462451 C435.872131,115.608696 436.316063,115.324111 436.316063,113.237154 L436.316063,104.573123 C436.316063,102.865613 435.396489,102.264822 434.191529,101.505929 L434.191529,101.316206 L439.074787,101.316206 Z M458.512686,106.501976 L458.512686,113.237154 C458.512686,115.324111 458.956619,115.608696 460.320125,116.462451 L460.320125,116.683794 L453.946524,116.683794 L453.946524,116.462451 C455.310031,115.608696 455.753963,115.324111 455.753963,113.237154 L455.753963,106.976285 C455.753963,104.889328 454.929517,102.960474 452.42447,102.960474 C450.04626,102.960474 447.985145,104.952569 447.985145,108.588933 L447.985145,113.237154 C447.985145,115.324111 448.429078,115.608696 449.792584,116.462451 L449.792584,116.683794 L443.418983,116.683794 L443.418983,116.462451 C444.78249,115.608696 445.226422,115.324111 445.226422,113.237154 L445.226422,104.573123 C445.226422,102.865613 444.306848,102.264822 443.101888,101.505929 L443.101888,101.316206 L447.858307,101.316206 L447.985145,105.142292 C448.904719,102.486166 450.902416,101 453.56601,101 C456.800375,101 458.512686,103.118577 458.512686,106.501976 Z M470.118349,101 C474.462545,101 476.967593,103.84585 476.967593,108.715415 L465.710734,108.715415 C465.710734,112.794466 467.70843,115.29249 471.069633,115.29249 C473.479552,115.29249 475.223572,114.15415 476.143147,111.687747 L476.809045,111.909091 C476.079728,115.134387 473.796646,117 470.245187,117 C466.091247,117 462.730045,114.185771 462.730045,109.189723 C462.730045,104.193676 466.027828,101 470.118349,101 Z M465.774153,107.513834 L473.986903,107.513834 C473.923484,104.826087 473.099038,102.264822 470.08664,102.264822 C467.581592,102.264822 466.059538,104.383399 465.774153,107.513834 Z" id="DiscoverPoloOnline" fill="#FCF2E7" fill-rule="nonzero"></path>
            </g>
        </g>
    </g>
</svg>